# xmcd
#
# Track frame offsets: 
#        150
#        40555
#        94637
#        122907
#        150165
#        177647
#        208322
#        241335
#
# Disc length: 3741 seconds
#
# Revision: 1
# Processed by: cddbd v1.5.2PL0 Copyright (c) Steve Scherf et al.
# Submitted via: ExactAudioCopyFreeDBPlugin 1.0
#
DISCID=620e9b08
DTITLE=譚寶碩 - 箫中禪 Boobam Zen
DYEAR=2005
DGENRE=Instrumental
TTITLE0=雲門夜雨
TTITLE1=故園舊夢
TTITLE2=風雷祭
TTITLE3=明月幾時有
TTITLE4=大江東去
TTITLE5=葉落天地間
TTITLE6=恒河夜歌
TTITLE7=落霞
EXTD=
EXTT0=
EXTT1=
EXTT2=
EXTT3=
EXTT4=
EXTT5=
EXTT6=
EXTT7=
PLAYORDER=
